<?xml version="1.0" standalone="no"?>
<!DOCTYPE svg PUBLIC "-//W3C//DTD SVG 20010904//EN"
 "http://www.w3.org/TR/2001/REC-SVG-20010904/DTD/svg10.dtd">
<svg version="1.0" xmlns="http://www.w3.org/2000/svg"
 width="525.000000pt" height="525.000000pt" viewBox="0 0 525.000000 525.000000"
 preserveAspectRatio="xMidYMid meet">

<g transform="translate(0.000000,525.000000) scale(0.100000,-0.100000)"
fill="#000000" stroke="none">
<path d="M0 4860 l0 -390 38 -1 c20 0 57 -2 82 -4 25 -2 121 -6 214 -9 93 -4
174 -10 180 -15 11 -10 378 -33 399 -26 7 2 28 1 47 -4 73 -17 -71 -22 -295
-11 -121 7 -320 14 -442 16 l-223 5 0 -96 0 -95 50 0 c28 0 84 -7 125 -15 41
-9 105 -15 142 -14 93 2 237 -12 244 -23 3 -5 25 -4 53 2 46 10 140 5 161 -10
6 -3 61 -7 123 -9 62 -1 125 -6 138 -11 23 -9 24 -12 10 -25 -16 -17 -53 -20
-58 -6 -4 13 -204 23 -438 21 -107 -1 -222 3 -255 9 -33 6 -113 13 -178 17
l-117 6 0 -446 0 -446 48 7 c26 3 53 11 60 16 18 14 8 64 -17 92 -10 11 -22
31 -26 44 -12 38 -7 124 7 133 10 6 10 10 -1 17 -7 5 -15 20 -16 35 -2 14 -6
44 -10 66 -6 33 -4 40 9 40 9 0 16 -8 16 -21 0 -11 4 -18 9 -15 5 3 11 -3 14
-14 3 -11 12 -20 20 -20 9 0 13 -8 10 -23 -3 -16 8 -35 41 -70 24 -26 47 -60
51 -75 3 -15 17 -39 29 -54 26 -29 19 -28 271 -48 72 -6 155 -13 184 -15 30
-3 59 -9 64 -14 14 -14 21 -107 9 -115 -6 -3 -7 -19 -2 -41 8 -35 2 -46 -32
-58 -10 -4 -18 -2 -18 5 0 7 -5 6 -15 -2 -12 -10 -18 -10 -29 -1 -19 16 -30
-2 -22 -35 7 -25 -11 -54 -33 -54 -13 0 -32 -35 -24 -44 3 -3 1 -6 -5 -6 -7 0
-12 -9 -12 -19 0 -13 5 -18 18 -14 13 3 21 -5 30 -30 7 -19 21 -42 32 -52 11
-10 20 -24 20 -31 0 -7 5 -14 11 -16 6 -2 2 -14 -10 -29 -23 -30 -23 -44 0
-161 14 -74 23 -97 60 -145 45 -61 57 -73 75 -73 15 0 1 88 -20 129 -9 16 -16
40 -16 53 0 13 -7 32 -15 42 -10 13 -15 44 -15 88 0 42 -6 80 -15 98 -14 27
-14 30 4 40 17 8 19 18 14 62 -5 52 -4 53 26 66 27 12 31 18 29 51 -1 43 7 61
28 61 12 0 15 10 12 47 -3 41 0 48 17 51 27 6 35 20 35 64 0 30 5 38 29 49 22
10 31 23 38 53 5 28 16 44 33 53 13 7 30 20 37 29 6 9 16 13 22 10 19 -12 53
14 48 35 -4 13 1 22 11 26 9 4 26 17 37 30 11 13 30 23 42 23 11 0 23 7 27 15
3 8 12 15 21 15 8 0 15 4 15 9 0 5 15 14 33 22 52 21 98 55 118 88 21 36 61
42 91 14 17 -15 20 -15 49 15 17 18 41 32 53 32 11 0 35 8 51 18 26 17 33 17
52 5 28 -19 106 -26 150 -14 38 11 63 5 63 -13 0 -13 90 -37 105 -28 6 4 20 5
31 4 12 -2 28 4 37 12 12 12 38 16 112 16 89 0 97 -2 90 -17 -4 -10 -12 -33
-17 -52 -5 -19 -19 -47 -30 -62 -15 -20 -19 -38 -16 -68 3 -39 2 -41 -24 -41
-15 0 -30 5 -33 10 -12 19 -35 10 -41 -15 -6 -24 -14 -29 -41 -26 -7 1 -13 -3
-13 -9 0 -6 -8 -10 -17 -8 -14 2 -18 -3 -16 -28 2 -21 -2 -34 -12 -38 -8 -3
-15 -14 -15 -26 0 -14 -6 -19 -22 -17 -14 1 -23 -4 -24 -13 -2 -30 -4 -32 -17
-22 -8 7 -17 7 -29 -2 -12 -9 -16 -26 -14 -74 1 -53 -1 -63 -17 -68 -14 -5
-18 -13 -15 -35 3 -16 0 -29 -4 -29 -13 0 -38 -26 -38 -39 0 -6 -9 -11 -20
-11 -20 0 -28 -24 -11 -34 4 -3 11 -20 14 -38 3 -18 11 -46 18 -63 7 -16 18
-59 25 -95 26 -136 35 -162 66 -207 37 -51 45 -55 174 -88 79 -21 95 -22 127
-11 68 23 77 39 77 132 0 87 -13 173 -32 212 -14 28 -67 62 -97 62 -11 0 -21
5 -21 10 0 6 -28 10 -65 10 -44 0 -67 4 -69 13 -3 6 -7 24 -10 39 -5 24 -11
27 -53 30 -46 3 -48 4 -50 36 -2 24 2 34 15 39 9 4 31 16 47 28 46 34 81 41
190 39 82 -2 106 1 133 17 18 10 41 19 50 19 10 0 24 9 31 19 17 24 81 22 106
-3 9 -9 25 -16 35 -16 11 0 24 -8 29 -19 6 -10 23 -21 39 -24 23 -5 34 -17 56
-63 49 -103 70 -188 71 -289 3 -231 3 -237 27 -224 12 6 63 52 113 101 164
159 245 199 404 199 83 0 95 -3 108 -21 8 -11 22 -20 32 -20 15 0 61 -49 61
-66 0 -3 9 -17 20 -31 12 -16 20 -41 20 -65 0 -30 10 -54 43 -101 23 -34 48
-66 54 -70 7 -4 12 -18 11 -30 -1 -12 9 -37 22 -56 25 -32 25 -33 5 -47 -18
-14 -21 -13 -34 5 -7 12 -20 21 -29 21 -9 0 -26 10 -40 23 -23 21 -24 21 -37
3 -8 -10 -24 -24 -37 -30 -18 -9 -26 -7 -46 10 -69 62 -63 59 -147 56 -87 -3
-94 -7 -186 -94 -65 -62 -71 -77 -58 -137 9 -41 18 -57 52 -83 23 -18 55 -45
71 -59 40 -37 117 -53 187 -38 30 6 61 17 69 24 29 25 115 63 155 70 34 5 44
2 60 -14 10 -12 24 -21 32 -21 7 0 23 -11 35 -25 12 -14 26 -25 31 -25 25 0
107 -47 107 -61 0 -8 13 -28 29 -43 37 -36 77 -29 121 20 35 40 35 42 15 64
-13 14 -13 19 -1 36 13 18 15 16 21 -19 4 -20 14 -41 22 -45 8 -5 16 -28 18
-55 2 -26 7 -52 11 -58 4 -7 8 -25 9 -41 2 -16 10 -35 19 -41 9 -7 19 -30 23
-52 7 -45 45 -111 80 -138 12 -10 23 -26 23 -34 0 -9 3 -13 7 -10 3 4 12 2 20
-5 8 -6 13 -7 12 -2 -1 5 0 11 1 14 1 3 3 19 5 37 1 17 10 46 19 65 21 40 23
140 4 165 -7 10 -22 20 -33 21 -34 6 -46 23 -40 53 3 15 -1 50 -11 78 -10 31
-14 67 -11 91 5 40 5 40 -29 40 -19 0 -34 5 -34 10 0 6 -9 10 -20 10 -22 0
-27 -15 -7 -24 6 -3 0 -3 -16 1 -24 5 -27 2 -25 -18 2 -16 -3 -24 -15 -27 -17
-4 -18 -2 -2 28 11 21 14 42 10 62 -4 18 -3 33 4 37 5 4 8 17 4 29 -4 16 -11
21 -24 17 -10 -3 -32 1 -49 10 -17 9 -39 15 -48 14 -45 -4 -72 2 -72 16 0 8
-4 15 -10 15 -5 0 -10 7 -10 16 0 14 8 16 43 11 23 -3 35 -3 26 -1 -19 6 -29
33 -29 82 0 19 -8 40 -20 52 -26 26 -26 60 0 60 11 0 20 4 20 9 0 5 9 13 20
16 13 4 20 15 20 31 0 14 4 23 9 19 5 -3 13 0 17 6 4 8 3 9 -4 5 -8 -4 -16 3
-22 19 -14 38 -12 55 6 55 10 0 14 6 11 14 -3 8 3 22 14 32 10 9 19 23 19 31
0 7 7 13 15 13 8 0 15 -7 15 -15 0 -8 6 -12 13 -9 8 3 20 -2 27 -11 15 -18 41
-20 57 -4 16 16 65 -40 59 -67 -4 -14 3 -29 19 -44 14 -13 25 -29 25 -36 0 -7
9 -15 19 -19 25 -8 34 -51 26 -121 -6 -51 -4 -56 25 -85 33 -33 46 -34 67 -3
11 18 11 24 -7 44 -22 26 -22 42 1 48 11 3 11 2 -1 -7 -13 -9 -13 -11 3 -11 9
0 17 -7 17 -15 0 -41 62 14 75 66 8 31 19 47 40 59 18 10 32 28 37 48 5 17 13
34 18 37 6 3 10 19 10 34 0 15 7 36 15 47 8 10 15 24 15 31 0 7 11 29 25 49
14 20 25 50 25 65 0 28 -1 29 -52 29 -56 0 -85 11 -74 28 3 5 -3 21 -14 35
-23 28 -25 37 -10 37 22 0 38 24 27 41 -8 12 -4 22 14 40 13 13 30 24 39 24
10 0 16 12 18 35 2 19 8 37 13 41 6 3 6 16 -1 33 -14 38 -13 46 8 46 22 0 47
25 56 58 4 12 14 22 22 22 10 0 14 12 14 40 0 22 5 40 10 40 6 0 10 -11 10
-24 0 -14 5 -28 10 -31 6 -4 8 -11 5 -16 -4 -5 5 -9 20 -9 14 0 28 -7 31 -15
4 -8 15 -15 25 -15 15 0 19 7 19 34 0 19 4 38 10 41 6 3 10 24 10 45 0 44 28
267 36 290 4 12 7 12 13 1 6 -10 11 -4 16 20 6 28 4 36 -16 51 -46 35 -49 39
-49 69 0 27 -6 32 -60 55 -34 15 -62 34 -65 45 -6 19 -55 28 -55 10 0 -5 -8
-7 -19 -4 -12 3 -24 -3 -34 -18 -15 -20 -18 -21 -39 -7 -28 18 -101 29 -119
17 -12 -7 -12 -9 0 -9 7 0 11 -6 8 -14 -5 -11 8 -18 48 -26 29 -6 63 -20 76
-31 12 -10 26 -19 32 -19 13 0 68 -61 78 -88 6 -17 5 -30 -6 -45 -23 -33 -19
-74 10 -93 15 -10 25 -26 25 -39 0 -54 -25 -72 -48 -35 -9 15 -9 20 0 20 25 0
-9 18 -76 40 -38 12 -76 30 -85 39 -18 18 -151 29 -151 13 0 -14 36 -43 44
-35 3 4 13 -3 22 -15 9 -13 23 -21 31 -20 20 4 26 -12 13 -32 -7 -12 -12 -12
-22 -2 -17 17 -55 15 -62 -4 -10 -26 -7 -62 6 -66 17 -6 0 -28 -22 -28 -10 0
-22 -4 -25 -10 -3 -5 -19 -10 -35 -10 -16 0 -35 -6 -43 -14 -11 -11 -17 -12
-26 -3 -7 7 -43 11 -96 9 l-85 -1 -1 27 c-1 15 -1 32 0 39 2 17 -38 41 -80 49
-18 4 -45 14 -59 22 -14 9 -49 19 -79 23 -30 4 -82 21 -115 38 -34 16 -71 33
-83 36 -13 3 -23 10 -23 14 0 5 -26 11 -58 15 -31 4 -70 13 -86 21 -15 8 -37
15 -47 15 -10 0 -23 9 -28 19 -7 13 -27 21 -60 26 -28 4 -55 13 -62 21 -6 8
-18 14 -26 14 -8 0 -29 10 -46 22 -29 21 -45 34 -88 73 -9 8 -23 15 -31 15 -9
0 -21 7 -28 14 -6 8 -28 20 -48 26 -54 17 -115 42 -132 56 -8 6 -31 17 -51 23
-31 10 -38 18 -43 46 -4 19 -4 45 0 59 3 13 3 34 -1 45 -5 18 -12 20 -62 15
-34 -4 -58 -2 -62 5 -4 5 -16 8 -27 5 -16 -4 -19 -12 -16 -45 2 -21 0 -39 -4
-39 -14 0 -34 51 -34 84 0 17 -9 50 -20 74 -15 33 -17 48 -9 69 5 15 10 54 9
88 0 33 2 84 6 113 6 57 -5 82 -37 82 -10 0 -30 10 -44 22 -27 23 -90 34 -100
17 -10 -14 -45 -11 -45 5 0 13 -4 13 -27 0 -43 -22 -53 -18 -53 22 0 22 -4 33
-11 29 -5 -4 -9 -21 -7 -38 2 -23 -1 -32 -14 -35 -27 -5 -25 69 2 93 17 16 21
16 35 2 18 -19 41 -13 48 12 6 26 120 61 164 50 20 -4 41 -5 48 -2 7 2 16 -5
20 -17 4 -13 12 -19 21 -16 16 6 18 -3 5 -23 -12 -18 12 -43 33 -35 9 3 20 -3
28 -15 7 -12 18 -21 25 -21 17 0 17 55 -1 69 -7 6 -16 29 -20 50 -8 51 -39 91
-57 74 -17 -17 -49 -16 -49 1 0 7 9 20 20 27 19 14 19 15 -10 46 -16 17 -49
39 -75 47 -57 20 -60 20 -80 0 -9 -10 -28 -18 -42 -20 -14 -1 -32 -12 -40 -23
-8 -12 -19 -21 -24 -21 -14 0 -119 -82 -119 -93 0 -4 -11 -12 -25 -17 -14 -5
-25 -17 -25 -25 0 -10 -7 -15 -17 -13 -21 4 -21 7 -9 231 l7 147 -1035 0
-1036 0 0 -390z m2190 -20 c0 -5 -7 -10 -15 -10 -8 0 -15 -5 -15 -12 0 -6 -2
-9 -5 -6 -3 3 -3 13 1 22 7 17 34 22 34 6z m-126 -146 c9 -3 16 -12 16 -20 0
-21 17 -17 23 6 3 11 13 20 22 20 16 0 16 -2 1 -25 -9 -13 -16 -33 -16 -45 0
-18 -10 -25 -32 -21 -5 0 -7 -2 -6 -6 4 -19 -37 -83 -54 -83 -10 0 -18 -4 -18
-10 0 -5 -7 -10 -15 -10 -19 0 -20 -29 0 -36 12 -5 12 -9 -1 -30 -9 -13 -20
-21 -25 -18 -13 8 -39 -59 -39 -100 0 -37 -37 -105 -57 -106 -7 0 -18 -10 -24
-22 -6 -13 -13 -24 -14 -26 -1 -1 -14 2 -29 7 -19 8 -26 18 -26 37 0 14 -8 39
-17 54 -16 28 -16 30 11 57 32 31 46 62 46 99 0 29 77 173 96 181 8 3 12 9 9
13 -10 15 65 79 97 83 18 2 34 5 35 5 1 1 8 -1 17 -4z m-372 -562 c7 -15 17
-34 24 -42 14 -17 7 -100 -8 -100 -5 0 -17 13 -26 30 -9 16 -23 30 -29 30 -7
0 -13 7 -13 15 0 9 -7 18 -15 21 -33 13 -10 68 29 72 20 1 29 -5 38 -26z
m-472 8 c23 -7 23 -8 3 -9 -12 -1 -23 -6 -25 -12 -2 -7 -12 -7 -32 2 -25 12
-26 14 -9 20 22 9 31 9 63 -1z m140 -15 c11 -13 8 -15 -16 -14 -16 0 -23 3
-15 6 11 5 11 7 0 14 -11 7 -11 9 2 9 9 0 22 -7 29 -15z m1357 -75 c-1 -12 -8
-20 -19 -20 -23 0 -23 9 0 26 22 17 21 17 19 -6z m-462 -430 c3 -5 1 -10 -4
-10 -6 0 -11 5 -11 10 0 6 2 10 4 10 3 0 8 -4 11 -10z m1772 -126 c-3 -3 -12
-4 -19 -1 -8 3 -5 6 6 6 11 1 17 -2 13 -5z"/>
<path d="M2670 4562 c0 -17 32 -72 41 -72 16 0 10 67 -7 74 -22 8 -34 8 -34
-2z"/>
<path d="M4860 4131 c0 -22 29 -36 43 -22 15 15 0 41 -23 41 -13 0 -20 -7 -20
-19z"/>
<path d="M5125 4119 c-4 -6 -8 -30 -9 -54 0 -23 -6 -48 -13 -56 -20 -24 -20
-54 0 -51 10 2 17 -3 17 -12 0 -9 14 -18 36 -22 19 -4 38 -13 41 -20 3 -8 16
-14 29 -14 24 0 24 1 24 103 0 95 -2 103 -22 116 -30 19 -94 25 -103 10z"/>
<path d="M4853 4028 c-29 -45 -30 -55 -12 -66 26 -17 77 -4 85 21 11 36 -53
75 -73 45z"/>
<path d="M4320 3976 c-10 -13 -9 -17 5 -22 19 -8 45 4 48 21 3 17 -39 17 -53
1z"/>
<path d="M5135 3790 c-3 -11 -18 -25 -32 -32 -35 -17 -34 -32 2 -36 19 -3 33
2 42 14 8 11 31 20 61 24 l47 5 -38 23 c-47 27 -74 28 -82 2z"/>
<path d="M4170 3656 c-22 -22 -8 -27 60 -26 37 0 56 12 46 29 -8 13 -93 10
-106 -3z"/>
<path d="M5100 3634 c0 -11 -5 -26 -10 -34 -8 -13 -13 -13 -30 -2 -20 12 -21
11 -18 -10 2 -17 10 -23 28 -23 32 0 39 -31 12 -55 -11 -11 -39 -20 -62 -22
-39 -3 -46 -8 -78 -53 -26 -39 -40 -50 -60 -50 -19 0 -30 -8 -40 -27 -7 -16
-20 -28 -29 -28 -11 0 -10 -4 7 -18 l21 -17 -21 -28 c-25 -32 -23 -70 4 -75
10 -2 27 -12 37 -21 10 -9 38 -22 63 -29 36 -9 52 -9 86 3 32 11 46 12 66 3
20 -10 27 -9 35 3 6 10 9 10 9 2 0 -8 13 -13 33 -13 17 0 47 -4 65 -9 l32 -10
0 76 0 76 -33 -6 c-28 -4 -39 0 -70 30 -20 19 -37 39 -37 45 0 6 -7 19 -16 29
-18 20 -13 34 15 42 14 3 21 -2 25 -19 7 -26 56 -57 73 -46 19 12 26 99 10
124 -17 27 -5 85 18 95 8 3 15 18 15 33 0 25 -4 28 -42 33 -24 3 -58 9 -75 12
-28 6 -33 4 -33 -11z m-210 -328 c0 -19 -4 -23 -20 -19 -23 6 -27 23 -5 23 8
0 15 5 15 10 0 6 2 10 5 10 3 0 5 -11 5 -24z m280 -96 c0 -5 -5 -10 -11 -10
-5 0 -7 5 -4 10 3 6 8 10 11 10 2 0 4 -4 4 -10z"/>
<path d="M5230 3340 c0 -5 5 -10 11 -10 5 0 7 5 4 10 -3 6 -8 10 -11 10 -2 0
-4 -4 -4 -10z"/>
<path d="M256 2994 c-4 -10 -9 -51 -13 -92 -6 -68 -9 -76 -34 -91 -16 -9 -30
-25 -31 -36 -3 -21 -97 -79 -147 -90 l-31 -7 0 -384 0 -384 23 0 c28 1 57 22
57 44 0 9 5 16 10 16 6 0 10 13 10 30 0 32 18 115 30 140 4 8 22 20 41 26 25
9 35 18 37 37 2 14 10 31 18 37 8 7 14 21 14 31 0 11 7 19 15 19 8 0 22 17 30
37 9 21 21 41 28 45 9 5 7 11 -7 21 -15 11 -16 16 -6 22 9 5 15 4 18 -3 6 -18
22 -4 22 19 0 23 13 24 39 3 30 -26 123 -54 143 -43 24 13 38 11 38 -4 0 -26
37 -49 71 -45 32 3 33 5 36 49 3 38 -2 51 -22 73 -14 15 -25 31 -25 35 0 5
-16 28 -35 52 -19 24 -35 53 -35 64 -1 11 -9 36 -20 55 -10 19 -26 51 -35 70
-9 19 -21 37 -27 41 -6 4 -13 17 -15 29 -2 16 4 24 27 31 25 9 30 16 30 42 -1
42 -27 72 -67 75 -17 1 -61 13 -97 27 -79 30 -82 30 -90 9z m112 -171 c-10 -2
-26 -2 -35 0 -10 3 -2 5 17 5 19 0 27 -2 18 -5z"/>
<path d="M4000 2490 c0 -5 9 -10 20 -10 11 0 20 5 20 10 0 6 -9 10 -20 10 -11
0 -20 -4 -20 -10z"/>
<path d="M830 2413 c0 -5 5 -15 10 -23 8 -12 10 -11 10 8 0 12 -4 22 -10 22
-5 0 -10 -3 -10 -7z"/>
<path d="M3930 2410 c0 -5 9 -10 20 -10 11 0 20 5 20 10 0 6 -9 10 -20 10 -11
0 -20 -4 -20 -10z"/>
<path d="M867 2334 c-8 -9 2 -54 17 -74 7 -8 17 -27 24 -42 6 -16 16 -28 22
-28 6 0 15 -10 20 -22 8 -21 9 -20 9 10 1 17 -3 32 -9 32 -5 0 -12 15 -15 33
-7 35 -56 102 -68 91z"/>
<path d="M4205 2220 c-3 -5 -1 -10 4 -10 6 0 11 5 11 10 0 6 -2 10 -4 10 -3 0
-8 -4 -11 -10z"/>
<path d="M2133 2041 c-43 -27 -61 -65 -69 -147 -7 -83 -27 -146 -60 -196 -13
-21 -24 -42 -24 -47 0 -19 -78 -50 -113 -44 -66 10 -83 -53 -27 -100 15 -13
35 -35 45 -50 9 -15 23 -27 30 -27 7 0 38 -29 70 -65 31 -36 64 -65 74 -65 22
0 41 -19 41 -41 0 -10 10 -21 23 -25 12 -3 29 -13 38 -20 17 -15 120 -46 157
-46 12 0 22 -4 22 -9 0 -5 17 -21 38 -37 20 -15 38 -34 40 -42 2 -8 12 -21 22
-29 11 -7 20 -21 20 -30 0 -9 4 -21 10 -27 5 -5 16 -37 25 -72 9 -34 27 -87
41 -117 14 -30 22 -59 19 -65 -4 -6 -1 -17 5 -25 6 -8 9 -18 6 -24 -8 -12 66
-25 93 -16 11 3 31 1 43 -6 28 -16 86 -12 104 6 8 7 17 15 21 17 14 6 53 113
53 146 0 18 11 65 25 104 16 45 25 93 25 130 0 66 15 109 59 171 39 54 50 117
25 137 -21 18 -106 19 -127 2 -28 -23 -232 -31 -253 -10 -7 7 -15 48 -18 96
-5 67 -3 84 9 88 8 4 15 15 15 26 0 11 6 32 14 46 35 68 46 107 46 160 0 53
-4 63 -46 121 -25 35 -59 70 -76 79 -17 10 -43 27 -59 40 -27 22 -40 24 -191
28 -151 5 -165 4 -195 -15z"/>
<path d="M1660 1997 c0 -1 -9 -26 -19 -55 -11 -29 -15 -54 -10 -58 5 -3 9 -18
9 -34 0 -39 19 -77 41 -83 10 -3 19 -3 21 -1 10 9 -1 206 -12 219 -11 13 -30
21 -30 12z"/>
<path d="M0 1860 c0 -5 5 -10 11 -10 5 0 7 5 4 10 -3 6 -8 10 -11 10 -2 0 -4
-4 -4 -10z"/>
<path d="M10 1710 c-8 -5 -12 -12 -9 -15 4 -3 12 1 19 10 14 17 11 19 -10 5z"/>
<path d="M0 1634 c0 -31 2 -35 15 -24 19 16 19 27 0 46 -13 14 -15 11 -15 -22z"/>
<path d="M0 1482 c0 -34 14 -43 24 -15 4 9 0 23 -9 32 -13 14 -15 12 -15 -17z"/>
<path d="M1515 1419 c-9 -14 4 -79 15 -79 6 0 10 -9 10 -20 0 -11 8 -24 17
-27 26 -10 61 -55 67 -86 3 -15 9 -27 13 -26 20 3 34 -2 28 -11 -3 -5 -2 -10
2 -10 5 0 15 -16 22 -35 7 -19 16 -35 21 -35 5 0 11 -8 15 -18 3 -11 17 -24
30 -30 17 -8 25 -20 25 -37 0 -29 8 -32 25 -8 11 14 13 13 19 -10 3 -15 10
-27 15 -27 5 0 12 -14 16 -30 4 -17 17 -41 28 -54 37 -41 45 -52 67 -102 13
-27 33 -62 46 -77 13 -16 24 -35 24 -44 0 -24 50 -58 95 -63 32 -4 41 -9 43
-27 2 -13 10 -23 18 -23 8 0 13 -6 11 -12 -1 -10 15 -12 61 -10 55 3 65 1 81
-19 l18 -22 31 22 c17 12 37 34 44 48 7 14 22 31 33 37 38 21 48 35 36 50 -9
11 -9 15 1 18 7 3 -30 12 -81 22 -52 9 -106 25 -121 36 -14 10 -38 22 -53 25
-15 4 -30 11 -33 16 -3 5 -14 9 -24 9 -10 0 -28 14 -40 30 -12 17 -29 30 -39
30 -23 0 -53 28 -69 63 -6 15 -16 27 -20 27 -5 0 -12 19 -14 43 -3 27 -14 53
-29 69 -43 46 -49 57 -56 90 -3 18 -15 40 -25 49 -10 9 -18 22 -18 29 0 7 -11
21 -25 32 -13 10 -24 24 -22 31 1 6 -12 18 -29 27 -47 24 -84 56 -84 74 0 24
-38 39 -86 33 -25 -2 -44 0 -44 5 0 28 -52 50 -65 27z"/>
<path d="M1905 730 c-3 -5 -1 -10 4 -10 6 0 11 5 11 10 0 6 -2 10 -4 10 -3 0
-8 -4 -11 -10z"/>
<path d="M3183 227 c-10 -6 -26 -21 -36 -33 -10 -13 -46 -36 -80 -53 -34 -16
-73 -40 -87 -53 -14 -13 -43 -33 -64 -44 -80 -41 -65 -44 217 -44 l265 0 4 30
c4 26 1 30 -19 30 -16 0 -23 6 -23 20 0 15 -7 20 -25 20 -24 0 -27 4 -29 53
-2 25 -51 74 -80 79 -13 3 -32 0 -43 -5z"/>
<path d="M3440 16 c0 -2 7 -6 15 -10 8 -3 15 -1 15 4 0 6 -7 10 -15 10 -8 0
-15 -2 -15 -4z"/>
</g>
</svg>
